{
  "accessors": [
    {
      "bufferView": 2,
      "componentType": 5126,
      "count": 5163,
      "max": [
        -0.6442936658859253,
        -0.06986569613218307,
        1.2954336404800415
      ],
      "min": [
        -0.6981909275054932,
        -0.1377004235982895,
        1.2342751026153564
      ],
      "type": "VEC3"
    },
    {
      "bufferView": 2,
      "byteOffset": 61956,
      "componentType": 5126,
      "count": 5163,
      "max": [
        0.99986332654953,
        0.9999350309371948,
        0.99965500831604
      ],
      "min": [
        -0.9985687732696533,
        -0.999941349029541,
        -0.9994141459465027
      ],
      "type": "VEC3"
    },
    {
      "bufferView": 1,
      "componentType": 5126,
      "count": 5163,
      "max": [
        0.35513073205947876,
        0.21659791469573975
      ],
      "min": [
        0.04568484425544739,
        0.003667806973680854
      ],
      "type": "VEC2"
    },
    {
      "bufferView": 0,
      "componentType": 5125,
      "count": 27636,
      "type": "SCALAR"
    }
  ],
  "asset": {
    "extras": {
      "author": "CT Reed (https://sketchfab.com/continuumreed)",
      "license": "CC-BY-4.0 (http://creativecommons.org/licenses/by/4.0/)",
      "source": "https://sketchfab.com/3d-models/bracelet-1-rose-character-jewelry-free-f6c11eb4147d4b7794b53002c7aae288",
      "title": "Bracelet 1 (Rose) - Character Jewelry (Free)"
    },
    "generator": "Sketchfab-16.53.0",
    "version": "2.0"
  },
  "bufferViews": [
    {
      "buffer": 0,
      "byteLength": 110544,
      "name": "floatBufferViews",
      "target": 34963
    },
    {
      "buffer": 0,
      "byteLength": 41304,
      "byteOffset": 110544,
      "byteStride": 8,
      "name": "floatBufferViews",
      "target": 34962
    },
    {
      "buffer": 0,
      "byteLength": 123912,
      "byteOffset": 151848,
      "byteStride": 12,
      "name": "floatBufferViews",
      "target": 34962
    }
  ],
  "buffers": [
    {
      "byteLength": 275760,
      "uri": "scene.bin"
    }
  ],
  "extensionsUsed": [
    "KHR_materials_specular"
  ],
  "images": [
    {
      "uri": "textures/Rose_Accessories_-_Gold_baseColor.png"
    },
    {
      "uri": "textures/Rose_Accessories_-_Gold_metallicRoughness.png"
    },
    {
      "uri": "textures/Rose_Accessories_-_Gold_specularf0.png"
    }
  ],
  "materials": [
    {
      "doubleSided": true,
      "emissiveFactor": [
        0.23391156271636818,
        0.23391156271636818,
        0.23391156271636818
      ],
      "emissiveTexture": {
        "index": 0
      },
      "extensions": {
        "KHR_materials_specular": {
          "specularColorFactor": [
            1.0,
            1.0,
            1.0
          ],
          "specularFactor": 1.0,
          "specularTexture": {
            "index": 2
          }
        }
      },
      "name": "Rose_Accessories_-_Gold",
      "pbrMetallicRoughness": {
        "baseColorTexture": {
          "index": 0
        },
        "metallicRoughnessTexture": {
          "index": 1
        }
      }
    }
  ],
  "meshes": [
    {
      "name": "Bangle Bracelet_Rose Accessories - Gold_0",
      "primitives": [
        {
          "attributes": {
            "NORMAL": 1,
            "POSITION": 0,
            "TEXCOORD_0": 2
          },
          "indices": 3,
          "material": 0,
          "mode": 4
        }
      ]
    }
  ],
  "nodes": [
    {
      "children": [
        1
      ],
      "matrix": [
        1.0,
        0.0,
        0.0,
        0.0,
        0.0,
        2.220446049250313e-16,
        -1.0,
        0.0,
        0.0,
        1.0,
        2.220446049250313e-16,
        0.0,
        0.0,
        0.0,
        0.0,
        1.0
      ],
      "name": "Sketchfab_model"
    },
    {
      "children": [
        2
      ],
      "matrix": [
        0.009999999776482582,
        0.0,
        0.0,
        0.0,
        0.0,
        0.0,
        0.009999999776482582,
        0.0,
        0.0,
        -0.009999999776482582,
        0.0,
        0.0,
        0.0,
        0.0,
        0.0,
        1.0
      ],
      "name": "Bangle Bracelet.fbx"
    },
    {
      "children": [
        3
      ],
      "name": "RootNode"
    },
    {
      "children": [
        4
      ],
      "matrix": [
        100.0,
        0.0,
        0.0,
        0.0,
        0.0,
        -1.629206793918314e-05,
        -99.99999999999868,
        0.0,
        0.0,
        99.99999999999868,
        -1.629206793918314e-05,
        0.0,
        0.0,
        0.0,
        0.0,
        1.0
      ],
      "name": "Bangle Bracelet"
    },
    {
      "mesh": 0,
      "name": "Bangle Bracelet_Rose Accessories - Gold_0"
    }
  ],
  "samplers": [
    {
      "magFilter": 9729,
      "minFilter": 9987,
      "wrapS": 10497,
      "wrapT": 10497
    }
  ],
  "scene": 0,
  "scenes": [
    {
      "name": "Sketchfab_Scene",
      "nodes": [
        0
      ]
    }
  ],
  "textures": [
    {
      "sampler": 0,
      "source": 0
    },
    {
      "sampler": 0,
      "source": 1
    },
    {
      "sampler": 0,
      "source": 2
    }
  ]
}
