{
  "accessors": [
    {
      "bufferView": 2,
      "componentType": 5126,
      "count": 2182,
      "max": [
        0.7010632753372192,
        0.7299514412879944,
        0.5935901999473572
      ],
      "min": [
        -0.7760957479476929,
        -0.3218737542629242,
        -1.4582809209823608
      ],
      "type": "VEC3"
    },
    {
      "bufferView": 2,
      "byteOffset": 26184,
      "componentType": 5126,
      "count": 2182,
      "max": [
        1.0,
        0.999778151512146,
        0.9999998807907104
      ],
      "min": [
        -1.0,
        -0.9990983009338379,
        -1.0
      ],
      "type": "VEC3"
    },
    {
      "bufferView": 1,
      "componentType": 5126,
      "count": 2182,
      "max": [
        0.9252282381057739,
        0.4133182764053345
      ],
      "min": [
        0.0,
        0.0
      ],
      "type": "VEC2"
    },
    {
      "bufferView": 1,
      "byteOffset": 17456,
      "componentType": 5126,
      "count": 2182,
      "max": [
        0.9501757025718689,
        0.463822603225708
      ],
      "min": [
        0.7988033294677734,
        0.25355637073516846
      ],
      "type": "VEC2"
    },
    {
      "bufferView": 0,
      "componentType": 5125,
      "count": 12684,
      "type": "SCALAR"
    },
    {
      "bufferView": 2,
      "byteOffset": 52368,
      "componentType": 5126,
      "count": 11909,
      "max": [
        3.473198652267456,
        5.78727912902832,
        6.264409065246582
      ],
      "min": [
        -3.1476523876190186,
        -1.2808576822280884,
        0.6133270263671875
      ],
      "type": "VEC3"
    },
    {
      "bufferView": 2,
      "byteOffset": 195276,
      "componentType": 5126,
      "count": 11909,
      "max": [
        1.0,
        0.9975998401641846,
        0.9997019171714783
      ],
      "min": [
        -1.0,
        -0.9967269897460938,
        -0.9997199177742004
      ],
      "type": "VEC3"
    },
    {
      "bufferView": 1,
      "byteOffset": 34912,
      "componentType": 5126,
      "count": 11909,
      "max": [
        0.6321449279785156,
        0.6303974986076355
      ],
      "min": [
        0.5010925531387329,
        0.39324164390563965
      ],
      "type": "VEC2"
    },
    {
      "bufferView": 1,
      "byteOffset": 130184,
      "componentType": 5126,
      "count": 11909,
      "max": [
        0.0,
        0.0
      ],
      "min": [
        0.0,
        0.0
      ],
      "type": "VEC2"
    },
    {
      "bufferView": 0,
      "byteOffset": 50736,
      "componentType": 5125,
      "count": 47862,
      "type": "SCALAR"
    }
  ],
  "asset": {
    "extras": {
      "author": "eeelabvisual (https://sketchfab.com/eeelabvisual)",
      "license": "CC-BY-4.0 (http://creativecommons.org/licenses/by/4.0/)",
      "source": "https://sketchfab.com/3d-models/blumarine-necklace-beads-1f345555b62f47969fea020db7276de9",
      "title": "BLUMARINE NECKLACE BEADS"
    },
    "generator": "Sketchfab-12.63.0",
    "version": "2.0"
  },
  "bufferViews": [
    {
      "buffer": 0,
      "byteLength": 242184,
      "name": "floatBufferViews",
      "target": 34963
    },
    {
      "buffer": 0,
      "byteLength": 225456,
      "byteOffset": 242184,
      "byteStride": 8,
      "name": "floatBufferViews",
      "target": 34962
    },
    {
      "buffer": 0,
      "byteLength": 338184,
      "byteOffset": 467640,
      "byteStride": 12,
      "name": "floatBufferViews",
      "target": 34962
    }
  ],
  "buffers": [
    {
      "byteLength": 805824,
      "uri": "scene.bin"
    }
  ],
  "images": [
    {
      "uri": "textures/necklace._blue_baseColor.jpeg"
    }
  ],
  "materials": [
    {
      "doubleSided": true,
      "name": "phong1",
      "pbrMetallicRoughness": {
        "metallicFactor": 0.0,
        "roughnessFactor": 0.8942628736559436
      }
    },
    {
      "doubleSided": true,
      "name": "necklace._blue",
      "pbrMetallicRoughness": {
        "baseColorTexture": {
          "index": 0
        },
        "metallicFactor": 0.0,
        "roughnessFactor": 0.8795838621559191
      }
    }
  ],
  "meshes": [
    {
      "name": "polySurface2_phong1_0",
      "primitives": [
        {
          "attributes": {
            "NORMAL": 1,
            "POSITION": 0,
            "TEXCOORD_0": 2,
            "TEXCOORD_1": 3
          },
          "indices": 4,
          "material": 0,
          "mode": 4
        }
      ]
    },
    {
      "name": "Icosphere_002_necklace._blue_0",
      "primitives": [
        {
          "attributes": {
            "NORMAL": 6,
            "POSITION": 5,
            "TEXCOORD_0": 7,
            "TEXCOORD_1": 8
          },
          "indices": 9,
          "material": 1,
          "mode": 4
        }
      ]
    }
  ],
  "nodes": [
    {
      "children": [
        1
      ],
      "matrix": [
        1.0,
        0.0,
        0.0,
        0.0,
        0.0,
        2.220446049250313e-16,
        -1.0,
        0.0,
        0.0,
        1.0,
        2.220446049250313e-16,
        0.0,
        0.0,
        0.0,
        0.0,
        1.0
      ],
      "name": "Sketchfab_model"
    },
    {
      "children": [
        2
      ],
      "matrix": [
        0.009999999776482582,
        0.0,
        0.0,
        0.0,
        0.0,
        0.0,
        0.009999999776482582,
        0.0,
        0.0,
        -0.009999999776482582,
        0.0,
        0.0,
        0.0,
        0.0,
        0.0,
        1.0
      ],
      "name": "BLUMARINE NECKLACE BEADS.fbx"
    },
    {
      "children": [
        3,
        5,
        7
      ],
      "name": "RootNode"
    },
    {
      "children": [
        4
      ],
      "matrix": [
        0.04309645515674376,
        -0.11387395695953015,
        -0.9925600321790626,
        0.0,
        0.004939695587861774,
        0.9934952047827805,
        -0.11376676791190028,
        0.0,
        0.9990587044615657,
        4.163336342344337e-17,
        0.043378624224126416,
        0.0,
        -347.47607421875,
        93.4640884399414,
        737.362548828125,
        1.0
      ],
      "name": "CINEMA_4D_Editor"
    },
    {
      "name": "Object_4"
    },
    {
      "children": [
        6
      ],
      "matrix": [
        100.0,
        0.0,
        0.0,
        0.0,
        0.0,
        2.220446049250313e-14,
        -100.0,
        0.0,
        0.0,
        100.0,
        2.220446049250313e-14,
        0.0,
        -283.5927734375,
        80.85357666015625,
        150.30950927734375,
        1.0
      ],
      "name": "polySurface2"
    },
    {
      "mesh": 0,
      "name": "polySurface2_phong1_0"
    },
    {
      "children": [
        8
      ],
      "matrix": [
        16.892309188842773,
        0.0,
        0.0,
        0.0,
        0.0,
        14.36488241308641,
        -18.83459413106306,
        0.0,
        0.0,
        13.369944236943233,
        10.197070109223093,
        0.0,
        -290.54656982421875,
        -23.60588836669922,
        151.39559936523438,
        1.0
      ],
      "name": "Icosphere_002"
    },
    {
      "mesh": 1,
      "name": "Icosphere_002_necklace._blue_0"
    }
  ],
  "samplers": [
    {
      "magFilter": 9729,
      "minFilter": 9987,
      "wrapS": 10497,
      "wrapT": 10497
    }
  ],
  "scene": 0,
  "scenes": [
    {
      "name": "Sketchfab_Scene",
      "nodes": [
        0
      ]
    }
  ],
  "textures": [
    {
      "sampler": 0,
      "source": 0
    }
  ]
}
